<svg xmlns="http://www.w3.org/2000/svg" viewBox="0 0 287.02 286.97"><defs><style>.cls-1,.cls-2,.cls-3,.cls-4,.cls-5{stroke:#000;}.cls-1,.cls-2,.cls-3,.cls-4{stroke-miterlimit:10;}.cls-1{stroke-width:4px;}.cls-2,.cls-4{stroke-width:2px;}.cls-3{stroke-width:3px;}.cls-4{fill:#fff;}.cls-5{fill:none;stroke-linejoin:round;stroke-width:14px;}</style></defs><title>icon_menu</title><g id="Layer_2" data-name="Layer 2"><g id="Capa_1" data-name="Capa 1"><path class="cls-1" d="M285,151.76c-.73,5.44-1.2,10.94-2.23,16.33q-12.9,67.2-72.9,100.23a131.26,131.26,0,0,1-72.3,16.39c-53.11-3.28-92.92-28.48-118.89-74.87A129.54,129.54,0,0,1,2.26,137.57c3.28-53.21,28.58-93,75.08-119,17.25-9.66,36-14.74,55.76-16.09A14.55,14.55,0,0,0,135.24,2h16.58a20,20,0,0,0,2.4.48,127.79,127.79,0,0,1,41.72,9.68c47.72,20.47,76.9,56.14,86.89,107.23,1,5.21,1.47,10.52,2.19,15.79Zm-9.42-8.27c.08-72.7-59-131.9-131.9-132.07s-132.19,59.1-132.24,132,59,132,131.86,132.11S275.52,216.33,275.6,143.49Z"/><path class="cls-2" d="M164.36,185.86c.79-18.12,1.3-30.64,1.92-43.14a3.69,3.69,0,0,0-2-3.75,23.87,23.87,0,0,1-10.72-17.26,57.15,57.15,0,0,1,2-24.83c.79-2.65,1.57-5.29,2.37-7.93,2.83-9.32,10.3-15.58,19.24-16.14,9.73-.61,18.09,4.35,21.74,13.72,3.44,8.84,6,18,5.91,27.62-.11,10.48-2.71,19.66-12.31,25.59a3.32,3.32,0,0,0-.89,2.58c.6,15,1.28,30,1.95,45,.44,9.94,1,19.87,1.28,29.8.21,8-5,14.07-13.11,15.69a15.84,15.84,0,0,1-17.64-9.67,21.06,21.06,0,0,1-1-7.83C163.45,203.6,164.08,191.92,164.36,185.86Zm9.79-8.42h0c-.6,13-1.24,25.93-1.78,38.9-.18,4.51,2.39,7.18,6.54,7.16s6.65-2.71,6.5-7.21c-.17-5.25-.49-10.48-.73-15.72q-1.42-31.17-2.84-62.35a5.2,5.2,0,0,1,3.12-5.35,24.93,24.93,0,0,0,4.27-2.49c5.09-3.85,5.88-9.49,6.11-15.3.35-8.93-2.32-17.27-5.37-25.46-1.8-4.85-5.84-7.33-11-7.38s-9.28,2.34-11.12,7.17c-3.17,8.34-5.79,16.87-5.48,26,.27,7.78,2.53,14.29,10.43,17.53,2.47,1,3.2,3.1,3.08,5.62Q175,158,174.15,177.44Z"/><path class="cls-3" d="M237.86,145.67c.07,22.07-8.77,44.68-26.85,63.64-2.41,2.52-5.17,2.95-7.28,1.11s-2.22-4.75.39-7.5c8.53-9,15.26-19.13,19.27-30.9,8.5-24.93,6.26-48.91-6.92-71.75-2.24-3.88-5.1-7.42-7.71-11.09-1.47-2.08-1.93-4.21-.28-6.35,1.94-2.52,5.32-2.36,7.59.39A94.61,94.61,0,0,1,230,105.69C234.9,117.13,237.55,129.09,237.86,145.67Z"/><path class="cls-3" d="M49.26,142.19a93.67,93.67,0,0,1,17.5-53.47c1.91-2.73,4.51-3.42,6.86-1.9s2.85,4.32,1,7c-6,8.7-10.81,18-13.21,28.34-6.72,28.82-.77,54.69,18.54,77.32,1.19,1.4,2.52,2.69,3.64,4.15a4.64,4.64,0,0,1-.39,6.47,4.48,4.48,0,0,1-6.67-.42,135,135,0,0,1-10.71-13C54.66,180.5,49.21,162.42,49.26,142.19Z"/><path class="cls-3" d="M144,48.63c7.08,1,14.18,1.94,21.23,3.11a4.53,4.53,0,0,1,4,5.56c-.59,2.75-3,4.22-6.15,3.52a86.59,86.59,0,0,0-37.47-.24c-3.75.81-7.41,2.08-11.11,3.17-3.47,1-6,.15-6.89-2.5-1-2.87.36-5.16,3.88-6.43A112.45,112.45,0,0,1,144,48.63Z"/><path class="cls-3" d="M143.57,228.41c3.21-.19,6.33-.4,9.46-.54,3.39-.15,5.51,1.42,5.75,4.19s-1.63,5-4.95,5.1q-10.34.34-20.67,0a4.58,4.58,0,0,1-4.76-5.25c.29-2.66,2.32-4.16,5.6-4S140.43,228.23,143.57,228.41Z"/><path class="cls-4" d="M174.15,177.44q.89-19.44,1.78-38.89c.12-2.52-.61-4.6-3.08-5.62-7.9-3.24-10.16-9.75-10.43-17.53-.31-9.12,2.31-17.65,5.48-26,1.84-4.83,6-7.23,11.12-7.17s9.17,2.53,11,7.38c3,8.19,5.72,16.53,5.37,25.46-.23,5.81-1,11.45-6.11,15.3a24.93,24.93,0,0,1-4.27,2.49,5.2,5.2,0,0,0-3.12,5.35q1.41,31.18,2.84,62.35c.24,5.24.56,10.47.73,15.72.15,4.5-2.34,7.18-6.5,7.21s-6.72-2.65-6.54-7.16c.54-13,1.18-25.93,1.78-38.9Z"/><path class="cls-5" d="M131.23,204.06c-28.43,0-51.47-27.13-51.47-60.59s23-60.6,51.47-60.6Z"/></g></g></svg>