<svg xmlns="http://www.w3.org/2000/svg" viewBox="0 0 269.99 298.46"><defs><style>.cls-1,.cls-2{fill:none;stroke:#000;stroke-miterlimit:10;stroke-width:15px;}.cls-1{opacity:0.95;}</style></defs><title>icon_home</title><g id="Layer_2" data-name="Layer 2"><g id="Capa_1" data-name="Capa 1"><path class="cls-1" d="M257.53,136.48,149.77,14.17a19.7,19.7,0,0,0-29.55,0L12.46,136.48c-11.21,12.71-2.18,32.71,14.77,32.71h2.64a4.07,4.07,0,0,1,4,4.13V268a23,23,0,0,0,23,23H98.55v-54a12.69,12.69,0,0,1,12.66-12.65h47.57a12.68,12.68,0,0,1,12.65,12.65v54H213.1a23,23,0,0,0,23-23V173.32a4.05,4.05,0,0,1,4-4.13h2.65C259.71,169.19,268.74,149.19,257.53,136.48Z"/><line class="cls-2" x1="95.49" y1="290.96" x2="173.05" y2="290.96"/></g></g></svg>