<?xml version="1.0" encoding="UTF-8" standalone="no"?>
<svg
   xmlns:dc="http://purl.org/dc/elements/1.1/"
   xmlns:cc="http://creativecommons.org/ns#"
   xmlns:rdf="http://www.w3.org/1999/02/22-rdf-syntax-ns#"
   xmlns:svg="http://www.w3.org/2000/svg"
   xmlns="http://www.w3.org/2000/svg"
   xmlns:sodipodi="http://sodipodi.sourceforge.net/DTD/sodipodi-0.dtd"
   xmlns:inkscape="http://www.inkscape.org/namespaces/inkscape"
   viewBox="0 0 240.51 298.46"
   version="1.1"
   id="svg1078"
   sodipodi:docname="icon_clock.svg"
   inkscape:version="1.0.2 (e86c870879, 2021-01-15, custom)">
  <metadata
     id="metadata1082">
    <rdf:RDF>
      <cc:Work
         rdf:about="">
        <dc:format>image/svg+xml</dc:format>
        <dc:type
           rdf:resource="http://purl.org/dc/dcmitype/StillImage" />
      </cc:Work>
    </rdf:RDF>
  </metadata>
  <sodipodi:namedview
     pagecolor="#ffffff"
     bordercolor="#666666"
     borderopacity="1"
     objecttolerance="10"
     gridtolerance="10"
     guidetolerance="10"
     inkscape:pageopacity="0"
     inkscape:pageshadow="2"
     inkscape:window-width="1920"
     inkscape:window-height="1001"
     id="namedview1080"
     showgrid="false"
     inkscape:zoom="0.98321156"
     inkscape:cx="135.62345"
     inkscape:cy="256.75576"
     inkscape:window-x="-9"
     inkscape:window-y="-9"
     inkscape:window-maximized="1"
     inkscape:current-layer="svg1078" />
  <defs
     id="defs1062">
    <style
       id="style1060">.cls-1,.cls-3{fill:none;}.cls-1,.cls-3,.cls-4{stroke:#000;stroke-linecap:round;stroke-linejoin:round;stroke-width:15px;}.cls-1{opacity:0.95;}.cls-2,.cls-4{fill:#fff;}</style>
  </defs>
  <title
     id="title1064">icon_clock</title>
  <path
     id="path1066"
     d="M 49.638672 243.78125 L 20.5 291 L 56.5 291 L 56.449219 283.21094 C 56.449219 275.63094 61.739219 269.41992 68.199219 269.41992 L 175.19922 269.41992 C 181.66922 269.41992 186.94922 275.63094 186.94922 283.21094 L 186.94922 291 L 218.50977 291 L 190.53516 244.04883 A 112.75 112.75 0 0 1 49.638672 243.78125 z "
     style="fill:none;stroke:#000000;stroke-opacity:1;stroke-width:15;stroke-miterlimit:4;stroke-dasharray:none" />
  <path
     d="M 120.25,50.63 A 105.26,105.26 0 1 1 15,155.88 105.37,105.37 0 0 1 120.25,50.63 m 0,-15 A 120.26,120.26 0 1 0 240.51,155.88 120.25,120.25 0 0 0 120.25,35.63 Z"
     id="path1070" />
  <polyline
     class="cls-3"
     points="101.64 131.31 110.27 170.85 174.46 156.83"
     id="polyline1072" />
  <path
     class="cls-4"
     d="m 164.05,55.26 c 0.37371,-21.892117 -87.123017,-19.79947 -87.51,0 -0.369245,-24.423954 19.328274,-48.4214732 43.755,-48.4214732 24.42673,0 44.12424,23.9975192 43.755,48.4214732 z"
     id="path1074"
     style="fill:none;stroke-linejoin:bevel"
     sodipodi:nodetypes="ccsc" />
</svg>
