<?xml version="1.0" encoding="UTF-8" standalone="no"?>
<svg
   xmlns:dc="http://purl.org/dc/elements/1.1/"
   xmlns:cc="http://creativecommons.org/ns#"
   xmlns:rdf="http://www.w3.org/1999/02/22-rdf-syntax-ns#"
   xmlns:svg="http://www.w3.org/2000/svg"
   xmlns="http://www.w3.org/2000/svg"
   xmlns:sodipodi="http://sodipodi.sourceforge.net/DTD/sodipodi-0.dtd"
   xmlns:inkscape="http://www.inkscape.org/namespaces/inkscape"
   width="32.563068mm"
   height="59.317932mm"
   viewBox="0 0 32.563068 59.317932"
   version="1.1"
   id="svg8"
   inkscape:version="1.0.2 (e86c870879, 2021-01-15, custom)"
   sodipodi:docname="icon_arrow.svg">
  <defs
     id="defs2" />
  <sodipodi:namedview
     id="base"
     pagecolor="#ffffff"
     bordercolor="#666666"
     borderopacity="1.0"
     inkscape:pageopacity="0.0"
     inkscape:pageshadow="2"
     inkscape:zoom="1.979899"
     inkscape:cx="51.024567"
     inkscape:cy="138.96375"
     inkscape:document-units="mm"
     inkscape:current-layer="layer1"
     inkscape:document-rotation="0"
     showgrid="false"
     inkscape:window-width="1920"
     inkscape:window-height="1001"
     inkscape:window-x="-9"
     inkscape:window-y="-9"
     inkscape:window-maximized="1" />
  <metadata
     id="metadata5">
    <rdf:RDF>
      <cc:Work
         rdf:about="">
        <dc:format>image/svg+xml</dc:format>
        <dc:type
           rdf:resource="http://purl.org/dc/dcmitype/StillImage" />
        <dc:title />
      </cc:Work>
    </rdf:RDF>
  </metadata>
  <g
     inkscape:label="Слой 1"
     inkscape:groupmode="layer"
     id="layer1"
     transform="translate(-56.880594,-46.156158)">
    <path
       id="path847"
       style="color:#000000;font-style:normal;font-variant:normal;font-weight:normal;font-stretch:normal;font-size:medium;line-height:normal;font-family:sans-serif;font-variant-ligatures:normal;font-variant-position:normal;font-variant-caps:normal;font-variant-numeric:normal;font-variant-alternates:normal;font-variant-east-asian:normal;font-feature-settings:normal;font-variation-settings:normal;text-indent:0;text-align:start;text-decoration:none;text-decoration-line:none;text-decoration-style:solid;text-decoration-color:#000000;letter-spacing:normal;word-spacing:normal;text-transform:none;writing-mode:lr-tb;direction:ltr;text-orientation:mixed;dominant-baseline:auto;baseline-shift:baseline;text-anchor:start;white-space:normal;shape-padding:0;shape-margin:0;inline-size:0;clip-rule:nonzero;display:inline;overflow:visible;visibility:visible;opacity:1;isolation:auto;mix-blend-mode:normal;color-interpolation:sRGB;color-interpolation-filters:linearRGB;solid-color:#000000;solid-opacity:1;vector-effect:none;fill:#000000;fill-opacity:1;fill-rule:nonzero;stroke:none;stroke-width:3.77953;stroke-linecap:round;stroke-linejoin:miter;stroke-miterlimit:4;stroke-dasharray:none;stroke-dashoffset:0;stroke-opacity:1;color-rendering:auto;image-rendering:auto;shape-rendering:auto;text-rendering:auto;enable-background:accumulate;stop-color:#000000;stop-opacity:1"
       d="m 225.65625,174.44922 a 10.796409,10.796409 0 0 0 -7.52148,3.16601 10.796409,10.796409 0 0 0 0.0156,15.26563 l 93.82422,93.66211 -93.82422,93.66211 a 10.796409,10.796409 0 0 0 -0.0156,15.26562 10.796409,10.796409 0 0 0 15.27343,0.0137 L 334.82227,294.24609 a 10.796409,10.796409 0 0 0 0.0723,-0.0703 10.796409,10.796409 0 0 0 0.008,-0.008 10.796409,10.796409 0 0 0 0.17774,-0.18164 10.796409,10.796409 0 0 0 0.0137,-0.0156 10.796409,10.796409 0 0 0 0.17383,-0.1875 10.796409,10.796409 0 0 0 0.0137,-0.0156 10.796409,10.796409 0 0 0 0.16992,-0.19141 10.796409,10.796409 0 0 0 0.0137,-0.0156 10.796409,10.796409 0 0 0 0.16211,-0.19727 10.796409,10.796409 0 0 0 0.0137,-0.0156 10.796409,10.796409 0 0 0 0.15821,-0.20118 10.796409,10.796409 0 0 0 0.29297,-0.39843 10.796409,10.796409 0 0 0 0.0352,-0.0469 10.796409,10.796409 0 0 0 0.0117,-0.0176 10.796409,10.796409 0 0 0 0.14258,-0.21093 10.796409,10.796409 0 0 0 0.0117,-0.0176 10.796409,10.796409 0 0 0 0.13672,-0.21485 10.796409,10.796409 0 0 0 0.0117,-0.0176 10.796409,10.796409 0 0 0 0.0508,-0.084 10.796409,10.796409 0 0 0 0.0898,-0.15429 10.796409,10.796409 0 0 0 0.12695,-0.22071 10.796409,10.796409 0 0 0 0.01,-0.0195 10.796409,10.796409 0 0 0 0.0879,-0.16211 10.796409,10.796409 0 0 0 0.043,-0.0801 10.796409,10.796409 0 0 0 0.11328,-0.22851 10.796409,10.796409 0 0 0 0.01,-0.0195 10.796409,10.796409 0 0 0 0.10937,-0.23047 10.796409,10.796409 0 0 0 0.008,-0.0195 10.796409,10.796409 0 0 0 0.10352,-0.23438 10.796409,10.796409 0 0 0 0.008,-0.0195 10.796409,10.796409 0 0 0 0.18164,-0.45898 10.796409,10.796409 0 0 0 0.0215,-0.0547 10.796409,10.796409 0 0 0 0.084,-0.24024 10.796409,10.796409 0 0 0 0.006,-0.0195 10.796409,10.796409 0 0 0 0.0156,-0.0488 10.796409,10.796409 0 0 0 0.13085,-0.42773 10.796409,10.796409 0 0 0 0.01,-0.0312 10.796409,10.796409 0 0 0 0.006,-0.0215 10.796409,10.796409 0 0 0 0.0664,-0.2461 10.796409,10.796409 0 0 0 0.006,-0.0195 10.796409,10.796409 0 0 0 0.0586,-0.25 10.796409,10.796409 0 0 0 0.004,-0.0195 10.796409,10.796409 0 0 0 0.0547,-0.25 10.796409,10.796409 0 0 0 0.004,-0.0215 10.796409,10.796409 0 0 0 0.0762,-0.44335 10.796409,10.796409 0 0 0 0.0137,-0.0801 10.796409,10.796409 0 0 0 0.0234,-0.17578 10.796409,10.796409 0 0 0 0.0137,-0.0977 10.796409,10.796409 0 0 0 0.002,-0.0215 10.796409,10.796409 0 0 0 0.0273,-0.25391 10.796409,10.796409 0 0 0 0.002,-0.0195 10.796409,10.796409 0 0 0 0.0215,-0.25586 10.796409,10.796409 0 0 0 0.002,-0.0195 10.796409,10.796409 0 0 0 0.0137,-0.25586 10.796409,10.796409 0 0 0 0,-0.0195 10.796409,10.796409 0 0 0 0.008,-0.25586 10.796409,10.796409 0 0 0 0,-0.0215 10.796409,10.796409 0 0 0 0.002,-0.25586 10.796409,10.796409 0 0 0 0,-0.0195 10.796409,10.796409 0 0 0 -0.006,-0.25586 10.796409,10.796409 0 0 0 0,-0.0215 10.796409,10.796409 0 0 0 -0.0117,-0.25391 10.796409,10.796409 0 0 0 -0.002,-0.0215 10.796409,10.796409 0 0 0 -0.0176,-0.25586 10.796409,10.796409 0 0 0 -0.002,-0.0195 10.796409,10.796409 0 0 0 -0.0254,-0.25391 10.796409,10.796409 0 0 0 -0.002,-0.0215 10.796409,10.796409 0 0 0 -0.01,-0.0801 10.796409,10.796409 0 0 0 -0.0254,-0.19336 10.796409,10.796409 0 0 0 -0.0371,-0.25391 10.796409,10.796409 0 0 0 -0.004,-0.0195 10.796409,10.796409 0 0 0 -0.043,-0.25195 10.796409,10.796409 0 0 0 -0.004,-0.0195 10.796409,10.796409 0 0 0 0,-0.004 10.796409,10.796409 0 0 0 -0.0976,-0.45117 10.796409,10.796409 0 0 0 -0.0195,-0.0859 10.796409,10.796409 0 0 0 -0.0645,-0.24804 10.796409,10.796409 0 0 0 -0.006,-0.0195 10.796409,10.796409 0 0 0 -0.0703,-0.24609 10.796409,10.796409 0 0 0 -0.006,-0.0195 10.796409,10.796409 0 0 0 -0.0762,-0.24414 10.796409,10.796409 0 0 0 -0.006,-0.0195 10.796409,10.796409 0 0 0 -0.082,-0.24219 10.796409,10.796409 0 0 0 -0.008,-0.0195 10.796409,10.796409 0 0 0 -0.0879,-0.24024 10.796409,10.796409 0 0 0 -0.008,-0.0176 10.796409,10.796409 0 0 0 -0.0937,-0.23829 10.796409,10.796409 0 0 0 -0.008,-0.0195 10.796409,10.796409 0 0 0 -0.10156,-0.23437 10.796409,10.796409 0 0 0 -0.008,-0.0195 10.796409,10.796409 0 0 0 -0.10743,-0.23242 10.796409,10.796409 0 0 0 -0.008,-0.0176 10.796409,10.796409 0 0 0 -0.11328,-0.23047 10.796409,10.796409 0 0 0 -0.01,-0.0176 10.796409,10.796409 0 0 0 -0.0781,-0.15234 10.796409,10.796409 0 0 0 -0.0488,-0.0937 10.796409,10.796409 0 0 0 -0.125,-0.22266 10.796409,10.796409 0 0 0 -0.01,-0.0176 10.796409,10.796409 0 0 0 -0.12891,-0.2207 10.796409,10.796409 0 0 0 -0.0117,-0.0176 10.796409,10.796409 0 0 0 -0.13476,-0.2168 10.796409,10.796409 0 0 0 -0.0117,-0.0176 10.796409,10.796409 0 0 0 -0.14063,-0.21289 10.796409,10.796409 0 0 0 -0.0117,-0.0176 10.796409,10.796409 0 0 0 -0.14648,-0.20899 10.796409,10.796409 0 0 0 -0.0117,-0.0176 10.796409,10.796409 0 0 0 -0.15234,-0.20507 10.796409,10.796409 0 0 0 -0.16993,-0.21875 10.796409,10.796409 0 0 0 -0.0117,-0.0156 10.796409,10.796409 0 0 0 -0.16211,-0.19726 10.796409,10.796409 0 0 0 -0.0137,-0.0156 10.796409,10.796409 0 0 0 -0.16601,-0.19336 10.796409,10.796409 0 0 0 -0.0137,-0.0156 10.796409,10.796409 0 0 0 -0.17188,-0.18946 10.796409,10.796409 0 0 0 -0.0156,-0.0156 10.796409,10.796409 0 0 0 -0.19141,-0.19922 10.796409,10.796409 0 0 0 -0.0547,-0.0566 10.796409,10.796409 0 0 0 -0.0156,-0.0156 L 233.4082,177.60156 a 10.796409,10.796409 0 0 0 -7.75195,-3.15234 z"
       transform="scale(0.26458333)" />
  </g>
</svg>
